{"title":"Formula 1 2013 Spanis - Practice 1 - BBC","uid":8459837,"size":1014982176,"categoryP":"video","categoryS":"tv_shows","magnet":"?xt=urn:btih:fc97e80ca908ec1c70d770cd746b793922aaad1e&amp;dn=Formula+1+2013+Spanis+-+Practice+1+-+BBC&amp;tr=udp%3A%2F%2Ftracker.openbittorrent.com%3A80&amp;tr=udp%3A%2F%2Fopen.demonii.com%3A1337&amp;tr=udp%3A%2F%2Ftracker.coppersurfer.tk%3A6969&amp;tr=udp%3A%2F%2Fexodus.desync.com%3A6969","seeders":0,"leechers":0,"uploader":"IAMH67","files":5,"time":1368207335,"description":"The 2013 Spanish GP kicks off with the first practice sessions held on Friday at the Catalunya Circut. Aired on the BBC.\n\nDate: Friday 10th May 2013 \n\nLength : Practice 1 (1 hour and 45 minutes long)\n\n[Practice 2 will be uploaded in 10 minutes after this Torrent]\n\nResolution : 608 x 336 (1.810) at 25.000 fps (screens at the bottom)\n\nAudio: MPEG Audio at 128 Kbps\n\nCredit: Hannibal\n\n\nFull Technical Information : \n\nVideo\nID                             : 0\nFormat                         : MPEG-4 Visual\nFormat profile                 : Advanced Simple@L5\nFormat settings, BVOP          : 2\nFormat settings, QPel          : No\nFormat settings, GMC           : No warppoints\nFormat settings, Matrix        : Default (H.263)\nMuxing mode                    : Packed bitstream\nCodec ID                       : XVID\nCodec ID/Hint                  : XviD\nDuration                       : 1h 40mn\nBit rate                       : 1 205 Kbps\nWidth                          : 608 pixels\nHeight                         : 336 pixels\nDisplay aspect ratio           : 16:9\nFrame rate                     : 25.000 fps\nColor space                    : YUV\nChroma subsampling             : 4:2:0\nBit depth                      : 8 bits\nScan type                      : Progressive\nCompression mode               : Lossy\nBits/(Pixel*Frame)             : 0.236\nStream size                    : 869 MiB (90%)\nWriting library                : XviD 1.2.1 (UTC 2008-12-04)\n\nAudio\nID                             : 1\nFormat                         : MPEG Audio\nFormat version                 : Version 1\nFormat profile                 : Layer 3\nMode                           : Joint stereo\nMode extension                 : MS Stereo\nCodec ID                       : 55\nCodec ID/Hint                  : MP3\nDuration                       : 1h 40mn\nBit rate mode                  : Constant\nBit rate                       : 128 Kbps\nChannel(s)                     : 2 channels\nSampling rate                  : 48.0 KHz\nCompression mode               : Lossy\nStream size                    : 92.3 MiB (10%)\nAlignment                      : Aligned on interleaves\nInterleave, duration           : 40 ms (1.00 video frame)\nInterleave, preload duration   : 504 ms\n\n\nScreens : \n &lt;a href=&quot;\nhttp://i.imgur.com/fBNig0i.jpg&quot; rel=&quot;nofollow&quot; target=&quot;_NEW&quot;&gt;\nhttp://i.imgur.com/fBNig0i.jpg&lt;/a&gt;\n &lt;a href=&quot;\nhttp://i.imgur.com/knsoYCL.jpg&quot; rel=&quot;nofollow&quot; target=&quot;_NEW&quot;&gt;\nhttp://i.imgur.com/knsoYCL.jpg&lt;/a&gt;\n &lt;a href=&quot;\nhttp://i.imgur.com/hEwvo4T.jpg&quot; rel=&quot;nofollow&quot; target=&quot;_NEW&quot;&gt;\nhttp://i.imgur.com/hEwvo4T.jpg&lt;/a&gt;\n\n","torrent":{"xt":"urn:btih:fc97e80ca908ec1c70d770cd746b793922aaad1e","amp;dn":"Formula+1+2013+Spanis+-+Practice+1+-+BBC","amp;tr":["udp%3A%2F%2Ftracker.openbittorrent.com%3A80","udp%3A%2F%2Fopen.demonii.com%3A1337","udp%3A%2F%2Ftracker.coppersurfer.tk%3A6969","udp%3A%2F%2Fexodus.desync.com%3A6969"],"infoHash":"fc97e80ca908ec1c70d770cd746b793922aaad1e","infoHashBuffer":{"type":"Buffer","data":[252,151,232,12,169,8,236,28,112,215,112,205,116,107,121,57,34,170,173,30]},"announce":[],"urlList":[]}}